<svg width="390" height="262" viewBox="0 0 390 262" fill="none" xmlns="http://www.w3.org/2000/svg">
<path fill-rule="evenodd" clip-rule="evenodd" d="M121 5.73077C121 2.56575 123.566 0 126.731 0H264.269C267.434 0 270 2.56576 270 5.73077V29.7999C270 32.9649 267.434 35.5307 264.269 35.5307H251.662C248.497 35.5307 245.931 32.9649 245.931 29.7999V24.0692C245.931 20.9041 243.365 18.3384 240.2 18.3384H150.8C147.635 18.3384 145.069 20.9041 145.069 24.0692V90.5461C145.069 93.7111 147.635 96.2768 150.8 96.2768H240.2C243.365 96.2768 245.931 93.7111 245.931 90.5461V84.8153C245.931 81.6503 248.497 79.0845 251.662 79.0845H264.269C267.434 79.0845 270 81.6503 270 84.8153V108.885C270 112.05 267.434 114.615 264.269 114.615H126.731C123.566 114.615 121 112.05 121 108.885V5.73077Z" fill="#00B0C8"/>
<path fill-rule="evenodd" clip-rule="evenodd" d="M164.554 32.0923C161.389 32.0923 158.823 34.658 158.823 37.8231V65.4352C158.823 68.6003 161.389 71.166 164.554 71.166H199.289C200.115 71.166 200.67 72.0125 200.34 72.7695L194.782 85.5431C194.312 86.6213 195.577 87.6225 196.519 86.9185L217.286 71.3942C217.484 71.2461 217.724 71.166 217.972 71.166H227.592C230.757 71.166 233.323 68.6003 233.323 65.4352V37.8231C233.323 34.658 230.757 32.0923 227.592 32.0923H164.554Z" fill="#00CAE6"/>
<rect x="165.7" y="42.4077" width="40.1154" height="3.43846" rx="1.71923" fill="#F0F0F0" fill-opacity="0.79"/>
<rect x="208.108" y="42.4077" width="16.0462" height="3.43846" rx="1.71923" fill="#F0F0F0" fill-opacity="0.79"/>
<rect x="224.154" y="53.8691" width="40.1154" height="3.43846" rx="1.71923" transform="rotate(-180 224.154 53.8691)" fill="#F0F0F0" fill-opacity="0.79"/>
<rect x="181.746" y="53.8691" width="16.0462" height="3.43846" rx="1.71923" transform="rotate(-180 181.746 53.8691)" fill="#F0F0F0" fill-opacity="0.79"/>
<rect x="224.154" y="61.8923" width="27.5077" height="3.43846" rx="1.71923" transform="rotate(-180 224.154 61.8923)" fill="#F0F0F0" fill-opacity="0.79"/>
<rect x="194.354" y="61.8923" width="28.6538" height="3.43846" rx="1.71923" transform="rotate(-180 194.354 61.8923)" fill="#F0F0F0" fill-opacity="0.79"/>
<path d="M41.9089 234.633C34.652 234.633 28.6196 233.726 23.8119 231.911C19.0949 230.097 15.3303 227.285 12.5183 223.475C9.7969 219.575 7.84659 214.631 6.66733 208.644C5.57879 202.566 5.03452 195.264 5.03452 186.737C5.03452 178.21 5.57879 170.908 6.66733 164.83C7.84659 158.752 9.7969 153.808 12.5183 149.999C15.3303 146.189 19.1402 143.377 23.948 141.562C28.8464 139.748 35.0602 138.841 42.5893 138.841C45.4921 138.841 48.5763 139.022 51.8419 139.385C55.1075 139.657 58.2825 140.066 61.3667 140.61C64.5416 141.154 67.2629 141.698 69.5307 142.243L68.9865 159.115C67.1722 158.843 64.9498 158.571 62.3191 158.299C59.6885 158.027 56.9671 157.8 54.1551 157.618C51.4337 157.346 48.8484 157.21 46.3992 157.21C42.3171 157.21 39.0062 157.709 36.4662 158.707C33.9263 159.705 31.9306 161.383 30.4792 163.741C29.1186 166.009 28.1661 169.003 27.6218 172.722C27.1682 176.441 26.9415 181.113 26.9415 186.737C26.9415 192.27 27.1682 196.942 27.6218 200.752C28.1661 204.471 29.1186 207.465 30.4792 209.732C31.9306 212 33.9263 213.633 36.4662 214.631C39.0062 215.629 42.3625 216.128 46.5353 216.128C50.1637 216.128 54.1097 215.946 58.3732 215.583C62.7273 215.22 66.3105 214.903 69.1225 214.631L69.5307 231.367C67.4444 231.821 64.8591 232.32 61.7749 232.864C58.7814 233.408 55.5157 233.816 51.978 234.089C48.5309 234.451 45.1746 234.633 41.9089 234.633ZM79.8836 233V137.344H100.702V166.735C102.879 165.918 105.691 165.102 109.138 164.286C112.585 163.469 115.624 163.061 118.255 163.061C124.695 163.061 129.684 164.195 133.222 166.463C136.851 168.64 139.391 172.223 140.842 177.212C142.384 182.201 143.155 188.869 143.155 197.214V233H122.337V198.983C122.337 194.72 122.065 191.272 121.52 188.642C121.067 186.011 120.16 184.106 118.799 182.927C117.438 181.748 115.443 181.158 112.812 181.158C110.635 181.158 108.413 181.43 106.145 181.974C103.877 182.519 102.063 183.018 100.702 183.471V233H79.8836ZM174.804 234.633C167.365 234.633 161.787 232.819 158.067 229.19C154.439 225.562 152.625 220.028 152.625 212.59C152.625 207.329 153.577 203.292 155.482 200.48C157.478 197.577 160.335 195.491 164.054 194.221C167.774 192.951 172.264 192.18 177.525 191.907L192.765 190.683V187.145C192.765 184.424 191.994 182.519 190.452 181.43C189 180.251 186.823 179.661 183.92 179.661C181.29 179.661 178.296 179.752 174.94 179.933C171.584 180.115 168.273 180.342 165.007 180.614C161.741 180.886 158.929 181.158 156.571 181.43L155.89 167.007C158.34 166.372 161.242 165.782 164.599 165.238C168.046 164.603 171.629 164.104 175.348 163.741C179.067 163.288 182.56 163.061 185.825 163.061C191.722 163.061 196.711 163.787 200.793 165.238C204.966 166.599 208.14 168.957 210.318 172.314C212.495 175.579 213.583 180.16 213.583 186.057V215.992C213.855 217.08 214.49 217.942 215.488 218.577C216.577 219.121 217.756 219.529 219.026 219.801L218.618 233.68C216.531 233.862 214.309 233.998 211.95 234.089C209.683 234.179 207.868 234.134 206.508 233.952C204.149 233.68 202.108 233.136 200.385 232.32C198.752 231.413 197.527 230.505 196.711 229.598C195.259 230.233 193.354 230.959 190.996 231.775C188.637 232.592 186.052 233.272 183.24 233.816C180.519 234.361 177.707 234.633 174.804 234.633ZM179.974 219.529C181.516 219.529 183.059 219.348 184.601 218.985C186.233 218.622 187.776 218.214 189.227 217.76C190.678 217.307 191.858 216.899 192.765 216.536V203.065L180.791 204.154C178.251 204.426 176.391 205.242 175.212 206.603C174.033 207.873 173.443 209.687 173.443 212.046C173.443 214.313 173.987 216.128 175.076 217.488C176.164 218.849 177.797 219.529 179.974 219.529ZM252.536 234.633C247.456 234.633 243.329 233.952 240.154 232.592C236.979 231.14 234.666 228.646 233.214 225.108C231.853 221.48 231.173 216.4 231.173 209.868V181.702H223.825V164.558H231.173V147.549H251.992V164.558H268.048V181.702H251.992V204.698C251.992 207.782 252.128 210.186 252.4 211.909C252.763 213.633 253.443 214.858 254.441 215.583C255.439 216.309 256.935 216.672 258.931 216.672C259.475 216.672 260.337 216.626 261.516 216.536C262.696 216.445 263.875 216.4 265.054 216.4C266.324 216.309 267.277 216.218 267.912 216.128L268.456 232.592C266.188 233.045 263.467 233.499 260.292 233.952C257.207 234.406 254.622 234.633 252.536 234.633ZM301.701 234.633C296.621 234.633 292.494 233.952 289.319 232.592C286.144 231.14 283.831 228.646 282.379 225.108C281.019 221.48 280.338 216.4 280.338 209.868V181.702H272.991V164.558H280.338V147.549H301.157V164.558H317.213V181.702H301.157V204.698C301.157 207.782 301.293 210.186 301.565 211.909C301.928 213.633 302.608 214.858 303.606 215.583C304.604 216.309 306.101 216.672 308.096 216.672C308.64 216.672 309.502 216.626 310.682 216.536C311.861 216.445 313.04 216.4 314.219 216.4C315.489 216.309 316.442 216.218 317.077 216.128L317.621 232.592C315.353 233.045 312.632 233.499 309.457 233.952C306.373 234.406 303.787 234.633 301.701 234.633ZM344.063 261.302L352.771 233H336.715L321.476 164.558H343.246L353.86 215.447H356.989L367.467 164.558H388.285L366.378 261.302H344.063Z" fill="url(#paint0_linear_710_2)"/>
<defs>
<linearGradient id="paint0_linear_710_2" x1="195" y1="115" x2="195" y2="251" gradientUnits="userSpaceOnUse">
<stop stop-color="#00B0C8"/>
<stop offset="1" stop-color="#00CAE5"/>
</linearGradient>
</defs>
</svg>
